<?xml version="1.0" encoding="UTF-8"?>
<svg width="100px" height="100px" viewBox="0 0 100 100" version="1.1" xmlns="http://www.w3.org/2000/svg" xmlns:xlink="http://www.w3.org/1999/xlink">
    <title>icon/default-meow</title>
    <g id="icon/default-meow" stroke="none" stroke-width="1" fill="none" fill-rule="evenodd">
        <circle id="椭圆形" fill="#EFEFEF" cx="50" cy="50" r="50"></circle>
        <g id="编组" transform="translate(18.000000, 20.000000)" fill="#FFFFFF">
            <path d="M19.4473307,13.9038365 L45.0741928,13.9038365 C48.3987074,13.9038365 49.6042568,14.2499875 50.8196496,14.8999867 C52.0350425,15.5499859 52.9888899,16.5038333 53.6388891,17.7192262 C54.2888883,18.934619 54.6350393,20.1401684 54.6350393,23.464683 L54.6350393,37.1647813 C54.6350393,42.5271064 53.9427373,45.1526558 52.6427389,47.5834415 C51.3427405,50.0142272 49.4350456,51.921922 47.0042599,53.2219205 C44.5734742,54.5219189 41.9479249,55.2142209 36.5855997,55.2142209 L27.9359238,55.2142209 C22.5735987,55.2142209 19.9480493,54.5219189 17.5172636,53.2219205 C15.0864779,51.921922 13.1787831,50.0142272 11.8787846,47.5834415 C10.5787862,45.1526558 9.88648422,42.5271064 9.88648422,37.1647813 L9.88648422,23.464683 C9.88648422,20.1401684 10.2326352,18.934619 10.8826344,17.7192262 C11.5326336,16.5038333 12.4864811,15.5499859 13.7018739,14.8999867 C14.9172668,14.2499875 16.1228161,13.9038365 19.4473307,13.9038365 Z" id="矩形"></path>
            <path d="M16.9089938,9.3830644 L22.1555973,18.2828379 C22.9923171,19.7021594 22.5200251,21.5310422 21.1007036,22.3677621 C20.6374689,22.6408487 20.1090335,22.7836488 19.5713011,22.7810555 L9.16413609,22.7308644 C7.51655895,22.7229186 6.18737515,21.380852 6.19532099,19.7332749 C6.19784408,19.2101091 6.33790479,18.6968061 6.60145134,18.2448637 L11.762013,9.39528124 C12.5919856,7.9720037 14.4186058,7.49103506 15.8418834,8.32100772 C16.2825376,8.57797161 16.649941,8.94363502 16.9089938,9.3830644 Z" id="三角形" transform="translate(14.411160, 13.903190) rotate(-31.000000) translate(-14.411160, -13.903190) "></path>
            <path d="M52.6081971,9.3830644 L57.8548006,18.2828379 C58.6915204,19.7021594 58.2192285,21.5310422 56.799907,22.3677621 C56.3366722,22.6408487 55.8082368,22.7836488 55.2705045,22.7810555 L44.8633394,22.7308644 C43.2157623,22.7229186 41.8865785,21.380852 41.8945243,19.7332749 C41.8970474,19.2101091 42.0371081,18.6968061 42.3006547,18.2448637 L47.4612163,9.39528124 C48.2911889,7.9720037 50.1178091,7.49103506 51.5410867,8.32100772 C51.9817409,8.57797161 52.3491443,8.94363502 52.6081971,9.3830644 Z" id="三角形" transform="translate(50.110363, 13.903190) scale(-1, 1) rotate(-31.000000) translate(-50.110363, -13.903190) "></path>
        </g>
    </g>
</svg>